# xmcd CD database file
#
# Track frame offsets:
#	150
#	18300
#	34972
#	53405
#	66515
#	78530
#	93030
#	108735
#	123512
#	138937
#	158870
#	176245
#	190555
#	206087
#	222030
#	234850
#
# Disc length: 4092 seconds
#
# Revision: 0
# Processed by: cddbd v1.5.2PL0 Copyright (c) Steve Scherf et al.
# Submitted via: CDex 1.70beta2
#
DISCID=d80ffa10
DTITLE=Eric Clapton - Welcome To Albert Hall (Disc1)
DYEAR=1993
DGENRE=Blues
TTITLE0=MC～How Long
TTITLE1=Alabama Women
TTITLE2=Terraplane Blues
TTITLE3=From Four 'Till Late
TTITLE4=Kid-man Blues
TTITLE5=Country Jail
TTITLE6=Maceo's 32/20
TTITLE7=Chicago Breakdown
TTITLE8=Big Belle Rosa
TTITLE9=Walkin' Blues
TTITLE10=Long Distance Call
TTITLE11=Blow Wind Blow
TTITLE12=Key To The Highway
TTITLE13=Tell Me Mama
TTITLE14=Duke
TTITLE15=Blues Leave Me Alone
EXTD=YEAR: 1993
EXTT0=
EXTT1=
EXTT2=
EXTT3=
EXTT4=
EXTT5=
EXTT6=
EXTT7=
EXTT8=
EXTT9=
EXTT10=
EXTT11=
EXTT12=
EXTT13=
EXTT14=
EXTT15=
PLAYORDER=
